<svg version="1.1" id="Layer_1" xmlns="http://www.w3.org/2000/svg" xmlns:xlink="http://www.w3.org/1999/xlink" x="0px" y="0px"
	 width="100%" viewBox="0 0 2048 2048" enable-background="new 0 0 2048 2048" xml:space="preserve">
<path fill="#FFFFFF" opacity="1.000000" stroke="none" 
	d="
M1859.000000,2049.000000 
	C1239.333374,2049.000000 620.166687,2049.000000 1.000000,2049.000000 
	C1.000000,1366.333374 1.000000,683.666687 1.000000,1.000000 
	C683.666687,1.000000 1366.333374,1.000000 2049.000000,1.000000 
	C2049.000000,683.666687 2049.000000,1366.333374 2049.000000,2049.000000 
	C1985.833374,2049.000000 1922.666626,2049.000000 1859.000000,2049.000000 
M1400.863770,1085.487061 
	C1400.863770,1043.244141 1400.863770,1001.001221 1400.863770,958.524536 
	C1387.796021,958.524536 1375.571289,958.524536 1363.400513,958.524536 
	C1363.021240,960.806030 1362.708984,962.685059 1362.336914,964.923340 
	C1360.967285,964.416321 1360.003418,964.217896 1359.205688,963.741333 
	C1333.258057,948.239502 1299.000977,953.953003 1279.458618,977.066162 
	C1265.848633,993.162903 1261.859131,1012.184021 1262.727295,1032.615479 
	C1263.773193,1057.225830 1272.850098,1077.540649 1294.428955,1091.046875 
	C1314.460815,1103.584961 1339.676025,1102.651855 1359.063721,1088.661011 
	C1359.674561,1088.220215 1360.432129,1087.982544 1362.406982,1087.029785 
	C1361.576416,1093.414551 1361.257935,1098.836426 1360.109009,1104.076172 
	C1357.703857,1115.045776 1350.485474,1121.204590 1339.562744,1123.176636 
	C1326.342651,1125.563232 1313.994385,1122.772339 1302.565063,1116.171387 
	C1297.484497,1113.237061 1293.009399,1109.254517 1288.182861,1105.691284 
	C1281.808716,1114.183960 1275.343018,1122.798462 1268.714111,1131.630493 
	C1270.542114,1133.375000 1271.994995,1134.974487 1273.656738,1136.315308 
	C1295.286865,1153.767822 1320.101929,1159.996826 1347.232788,1155.556274 
	C1370.134888,1151.807739 1388.620728,1140.793091 1396.062256,1117.413086 
	C1399.189209,1107.588989 1399.347412,1096.819946 1400.863770,1085.487061 
M1037.364136,1086.081543 
	C1050.839355,1094.115356 1065.427856,1099.131836 1080.853394,1101.597168 
	C1104.288330,1105.342773 1127.104858,1103.919434 1148.166260,1091.706299 
	C1182.093384,1072.032471 1184.645630,1022.008118 1152.917603,999.845093 
	C1141.645508,991.971008 1128.547119,988.604370 1115.523560,985.010071 
	C1104.639893,982.006409 1093.646973,979.155579 1083.141968,975.098694 
	C1074.283813,971.677734 1070.730591,964.406799 1071.801025,956.038696 
	C1072.778320,948.398315 1078.672974,941.908630 1087.662476,941.117004 
	C1096.494629,940.339233 1105.610718,940.548157 1114.381592,941.831665 
	C1127.896606,943.809509 1139.943359,950.011047 1151.468140,958.329163 
	C1157.394531,946.553650 1163.110352,935.196350 1168.879272,923.733704 
	C1167.860840,922.995972 1167.225220,922.466614 1166.526855,922.039734 
	C1140.126953,905.905212 1111.490112,900.587097 1081.117310,905.307068 
	C1054.230469,909.485291 1035.779663,926.802368 1031.731079,952.016113 
	C1027.583740,977.844666 1036.908691,1000.642212 1063.011475,1011.271240 
	C1072.977417,1015.329346 1083.624390,1017.692444 1093.892456,1021.038391 
	C1103.984741,1024.327148 1114.243042,1027.300415 1123.949707,1031.514771 
	C1131.101929,1034.619995 1134.189697,1041.272705 1133.462158,1049.242065 
	C1132.764160,1056.889404 1128.468628,1061.895630 1121.319336,1064.141479 
	C1116.914917,1065.525024 1112.282104,1066.662354 1107.697754,1066.910278 
	C1084.534912,1068.163574 1064.200073,1060.467041 1045.928467,1046.635010 
	C1044.934814,1045.882690 1043.862549,1045.234009 1042.774414,1044.501831 
	C1036.081421,1055.308105 1029.612427,1065.752563 1022.808716,1076.737549 
	C1027.557007,1079.810913 1032.138672,1082.776489 1037.364136,1086.081543 
M1471.295776,1080.487427 
	C1471.312744,1060.492188 1471.312500,1040.496826 1471.365234,1020.501587 
	C1471.373169,1017.507812 1471.431396,1014.489685 1471.805786,1011.525696 
	C1473.167114,1000.747864 1480.709595,993.025940 1491.868774,990.776611 
	C1504.721680,988.185852 1516.223877,991.942078 1521.069336,1001.585815 
	C1523.507690,1006.439270 1524.752441,1012.374084 1524.836792,1017.846130 
	C1525.224365,1043.000488 1525.012451,1068.164062 1525.015503,1093.324341 
	C1525.015625,1095.242065 1525.015503,1097.159912 1525.015503,1099.517578 
	C1537.752075,1099.517578 1549.723877,1099.600098 1561.688965,1099.356689 
	C1562.621948,1099.337769 1564.247681,1097.066895 1564.295166,1095.795776 
	C1564.575073,1088.306885 1564.556396,1080.803833 1564.501709,1073.306396 
	C1564.335327,1050.485352 1564.486816,1027.652344 1563.756714,1004.848389 
	C1563.333496,991.631287 1559.170288,979.434265 1550.130005,969.162598 
	C1533.330688,950.075195 1495.179932,950.987732 1477.877075,965.398804 
	C1476.345093,966.674744 1474.539917,967.622681 1471.653320,969.515076 
	C1471.653320,944.911926 1471.653320,921.732422 1471.653320,898.294922 
	C1460.034302,898.294922 1449.210205,898.542969 1438.406494,898.182739 
	C1433.537720,898.020447 1432.306641,899.571533 1432.312988,904.320557 
	C1432.398315,968.303650 1432.286255,1032.286987 1432.239624,1096.270264 
	C1432.238892,1097.214722 1432.444092,1098.159424 1432.570435,1099.253906 
	C1445.452148,1099.253906 1458.022461,1099.253906 1471.295044,1099.253906 
	C1471.295044,1093.087524 1471.295044,1087.284302 1471.295776,1080.487427 
M524.502686,1078.013306 
	C536.162598,1064.148193 541.463440,1047.861328 541.520508,1030.043701 
	C541.611694,1001.597290 531.358093,978.175415 505.707336,963.699768 
	C486.584900,952.908325 465.889191,952.077271 445.141510,957.807251 
	C414.192505,966.354736 394.983521,992.589111 394.293213,1026.422974 
	C393.867493,1047.288696 398.886475,1066.428955 413.994904,1081.781616 
	C443.450317,1111.713257 495.556122,1110.137817 524.502686,1078.013306 
M908.529419,1037.500000 
	C908.615784,1029.505005 908.453918,1021.497498 908.858643,1013.518616 
	C909.261780,1005.569946 913.037659,999.257446 919.623291,994.712097 
	C933.629089,985.045593 954.540588,989.707947 960.150024,1004.094177 
	C961.795288,1008.313721 962.349121,1013.184937 962.390015,1017.766479 
	C962.616089,1043.087646 962.524170,1068.411621 962.559082,1093.734619 
	C962.561523,1095.496582 962.707947,1097.258179 962.809570,1099.510498 
	C975.130859,1099.510498 986.931946,1099.480347 998.732666,1099.532593 
	C1001.536194,1099.545044 1001.966553,1097.985352 1001.922607,1095.671753 
	C1001.824341,1090.508789 1001.899414,1085.342773 1001.843750,1080.178711 
	C1001.563904,1054.199829 1001.983643,1028.186768 1000.735840,1002.253967 
	C999.803284,982.872131 992.082703,965.895264 972.432922,958.925415 
	C951.199829,951.393982 930.416504,953.301453 912.044189,968.016968 
	C911.003967,968.850159 909.831604,969.518372 907.779358,970.894775 
	C907.779358,966.210388 907.779358,962.779846 907.779358,958.595886 
	C895.473633,958.595886 883.681458,958.502258 871.898438,958.787537 
	C871.028687,958.808594 869.500183,961.556580 869.495972,963.040283 
	C869.371399,1007.022217 869.445801,1051.004639 869.328369,1094.986572 
	C869.317993,1098.866455 870.696472,1099.773804 874.281006,1099.702148 
	C883.773071,1099.512695 893.278015,1099.468262 902.765503,1099.762451 
	C907.203430,1099.900146 908.815186,1098.769897 908.733093,1093.975586 
	C908.416443,1075.487915 908.558655,1056.992554 908.529419,1037.500000 
M739.686157,958.854065 
	C716.024170,951.097656 694.231995,953.398804 674.732300,971.611572 
	C674.732300,966.805664 674.732300,962.752625 674.732300,958.472839 
	C661.975403,958.472839 649.739563,958.472839 637.292847,958.472839 
	C637.292847,1005.462830 637.292847,1052.189575 637.292847,1099.008789 
	C650.148254,1099.008789 662.754150,1099.008789 675.749207,1099.008789 
	C675.749207,1096.425049 675.746033,1094.119995 675.749695,1091.814819 
	C675.791626,1065.819946 675.552124,1039.820312 675.988953,1013.832092 
	C676.229187,999.542419 687.025818,990.045288 702.389282,989.321960 
	C717.410767,988.614868 727.630310,996.732361 729.726685,1011.200562 
	C730.130432,1013.986511 730.069092,1016.852295 730.075439,1019.681519 
	C730.130676,1044.344849 730.152527,1069.008057 730.183777,1093.671387 
	C730.186035,1095.444214 730.184082,1097.217163 730.184082,1099.083008 
	C743.145935,1099.083008 755.571594,1099.083008 768.353760,1099.083008 
	C768.353760,1090.842407 768.385376,1082.887085 768.347839,1074.931885 
	C768.236267,1051.271240 768.767700,1027.582031 767.760986,1003.958740 
	C766.929993,984.458313 759.439880,968.003418 739.686157,958.854065 
M1740.952881,1071.868896 
	C1726.522949,1069.944458 1713.204956,1065.214844 1701.499390,1055.816040 
	C1696.183350,1064.244995 1690.939697,1072.329712 1686.055542,1080.626099 
	C1685.513794,1081.546509 1686.546143,1084.290161 1687.653564,1085.145020 
	C1697.839233,1093.007202 1709.480713,1097.880981 1721.979370,1100.557007 
	C1740.816162,1104.589966 1759.468262,1104.754517 1776.910767,1095.185181 
	C1792.669678,1086.539673 1800.528320,1072.888916 1799.446533,1054.882812 
	C1798.395996,1037.394653 1789.203613,1025.173218 1772.839600,1019.039673 
	C1763.210938,1015.430664 1753.127563,1013.044739 1743.287476,1009.984192 
	C1739.807251,1008.901855 1736.300049,1007.732300 1733.057983,1006.100403 
	C1728.472290,1003.792297 1726.089966,999.918091 1727.007080,994.623291 
	C1727.859619,989.701111 1731.429443,987.279724 1735.901611,986.298462 
	C1738.624390,985.701111 1741.538696,985.577271 1744.331177,985.767212 
	C1755.808105,986.548340 1766.483887,990.055115 1776.485474,995.698303 
	C1778.143799,996.633850 1779.881714,997.428101 1781.849365,998.422302 
	C1786.248291,989.888672 1790.171997,981.810303 1794.558105,973.991333 
	C1796.396362,970.714233 1795.369263,969.464478 1792.573486,967.833252 
	C1772.775391,956.282104 1751.484985,952.607849 1729.038574,956.212463 
	C1710.752930,959.148987 1697.221924,968.337524 1691.709473,987.070190 
	C1685.321777,1008.777039 1694.183716,1028.229492 1714.934814,1037.028809 
	C1720.728394,1039.485596 1726.911743,1041.015625 1732.891846,1043.042847 
	C1740.903564,1045.758789 1749.022949,1048.224609 1756.835693,1051.432129 
	C1760.928955,1053.112671 1762.945801,1056.978149 1762.426270,1061.679321 
	C1761.928589,1066.182495 1759.129272,1069.192749 1755.089111,1070.256958 
	C1750.822876,1071.380737 1746.271729,1071.422852 1740.952881,1071.868896 
M367.163849,1058.444458 
	C362.311737,1055.598267 357.459625,1052.752075 352.409271,1049.789673 
	C351.627228,1051.127441 350.965973,1052.259399 350.304077,1053.390747 
	C337.689789,1074.953369 306.590820,1075.083130 294.368164,1053.256714 
	C285.656219,1037.699585 285.360443,1021.307800 293.496796,1005.370117 
	C302.027802,988.659485 323.628265,982.870667 338.876221,993.310425 
	C344.050018,996.852722 347.903168,1002.323975 352.694336,1007.258362 
	C362.065155,1002.081421 372.325500,996.412964 382.399841,990.847351 
	C374.005707,971.747192 359.807739,960.489502 340.026062,956.350830 
	C328.320374,953.901855 316.443481,953.656311 304.779358,956.219360 
	C282.846161,961.038940 266.367493,973.259399 256.605865,993.788330 
	C247.867035,1012.166443 246.780853,1031.485962 251.668182,1050.872070 
	C265.350616,1105.145508 329.382446,1115.768555 363.642883,1090.420166 
	C372.057648,1084.194214 378.572449,1076.433472 382.628296,1066.536987 
	C377.506348,1063.877319 372.647400,1061.354370 367.163849,1058.444458 
M1644.730835,1064.696655 
	C1643.604614,1060.945557 1641.582031,1057.213135 1641.503052,1053.440063 
	C1641.101929,1034.284424 1641.252930,1015.117798 1641.088501,995.956116 
	C1641.057251,992.323669 1642.363403,990.941711 1646.074707,991.040039 
	C1654.017456,991.250549 1661.969849,991.104553 1670.090332,991.104553 
	C1670.090332,979.907288 1670.090332,969.316956 1670.090332,958.393372 
	C1668.332031,958.284607 1666.878662,958.121765 1665.424805,958.117249 
	C1658.925415,958.097229 1652.421997,957.986877 1645.928467,958.186401 
	C1642.513306,958.291321 1641.140991,957.187622 1641.283325,953.635803 
	C1641.516602,947.812134 1641.361328,941.972778 1641.365845,936.140076 
	C1641.369263,931.716980 1641.366455,927.293823 1641.366455,922.945435 
	C1627.837280,922.945435 1615.252197,922.945435 1602.080322,922.945435 
	C1602.080322,931.642944 1602.179321,939.954041 1602.056152,948.261841 
	C1601.888428,959.575500 1603.790039,958.031433 1591.841553,958.196472 
	C1588.403442,958.244019 1584.963867,958.203735 1581.446533,958.203735 
	C1581.446533,969.431763 1581.446533,979.999817 1581.446533,991.306885 
	C1588.417847,991.306885 1594.998657,991.306885 1602.241333,991.306885 
	C1602.241333,994.174133 1602.244507,996.299988 1602.240601,998.425842 
	C1602.204468,1018.257019 1602.073730,1038.088623 1602.171021,1057.919067 
	C1602.217163,1067.331177 1603.805176,1076.413696 1608.584595,1084.810547 
	C1621.849731,1108.115967 1656.830688,1106.926636 1673.904541,1094.942505 
	C1674.631226,1094.432617 1675.334106,1092.836548 1675.063110,1092.117920 
	C1671.739990,1083.305420 1668.232666,1074.562378 1664.732666,1065.698975 
	C1657.745483,1068.057495 1651.343750,1070.577637 1644.730835,1064.696655 
M837.481323,962.069458 
	C837.770020,959.380005 836.323914,958.598633 833.902100,958.619629 
	C828.742615,958.664429 823.582275,958.588562 818.422241,958.580017 
	C812.140686,958.569580 805.859131,958.577576 799.425537,958.577576 
	C799.425537,1006.007507 799.425537,1052.663818 799.425537,1099.250000 
	C812.364502,1099.250000 824.887390,1099.250000 837.486816,1099.250000 
	C837.486816,1053.489014 837.486816,1008.225830 837.481323,962.069458 
M598.341431,1099.291016 
	C600.463745,1099.291016 602.585999,1099.291016 604.593018,1099.291016 
	C604.593018,1052.197510 604.593018,1005.639587 604.593018,958.957886 
	C591.769897,958.957886 579.333252,958.957886 566.769165,958.957886 
	C566.769165,1005.752808 566.769165,1052.306641 566.769165,1099.287109 
	C577.171509,1099.287109 587.293030,1099.287109 598.341431,1099.291016 
M1199.075073,987.500000 
	C1199.075073,1024.594116 1199.075073,1061.688232 1199.075073,1099.147461 
	C1211.961304,1099.147461 1224.346436,1099.147461 1237.188110,1099.147461 
	C1237.188110,1052.330811 1237.188110,1005.820496 1237.188110,959.239014 
	C1224.417969,959.239014 1212.029785,959.239014 1199.073486,959.239014 
	C1199.073486,968.581909 1199.073486,977.540955 1199.075073,987.500000 
M1195.468140,912.255432 
	C1195.315186,914.237610 1195.017822,916.220886 1195.033569,918.201721 
	C1195.119263,928.963989 1201.021240,936.979675 1211.172119,940.252441 
	C1220.645020,943.306641 1232.328125,939.681763 1237.883667,931.637573 
	C1243.624268,923.325500 1243.842651,914.376282 1238.978394,905.759766 
	C1233.908936,896.779846 1225.590942,892.905029 1215.429932,894.217957 
	C1205.250366,895.533203 1198.588379,901.480591 1195.468140,912.255432 
M802.310364,900.798584 
	C801.110962,902.385986 799.744202,903.874634 798.739197,905.576782 
	C791.921936,917.122070 795.911499,932.232544 807.346619,938.435791 
	C818.770325,944.632812 833.904236,940.108337 839.628296,928.784668 
	C844.332642,919.478271 841.785767,906.788208 833.860046,900.043030 
	C824.807983,892.339294 813.280579,892.434875 802.310364,900.798584 
M599.407227,936.981079 
	C607.803406,930.275696 610.981567,921.594116 608.023682,911.307373 
	C605.315735,901.889526 598.791748,896.055054 588.895142,894.713074 
	C579.095276,893.384216 571.254333,896.879028 565.839966,905.238403 
	C560.247620,913.872681 561.514099,926.314392 568.586121,933.902222 
	C576.034790,941.894043 588.107239,943.286011 599.407227,936.981079 
z"/>
<path fill="#1BB3D3" opacity="1.000000" stroke="none" 
	d="
M1400.859375,1085.983765 
	C1399.347412,1096.819946 1399.189209,1107.588989 1396.062256,1117.413086 
	C1388.620728,1140.793091 1370.134888,1151.807739 1347.232788,1155.556274 
	C1320.101929,1159.996826 1295.286865,1153.767822 1273.656738,1136.315308 
	C1271.994995,1134.974487 1270.542114,1133.375000 1268.714111,1131.630493 
	C1275.343018,1122.798462 1281.808716,1114.183960 1288.182861,1105.691284 
	C1293.009399,1109.254517 1297.484497,1113.237061 1302.565063,1116.171387 
	C1313.994385,1122.772339 1326.342651,1125.563232 1339.562744,1123.176636 
	C1350.485474,1121.204590 1357.703857,1115.045776 1360.109009,1104.076172 
	C1361.257935,1098.836426 1361.576416,1093.414551 1362.406982,1087.029785 
	C1360.432129,1087.982544 1359.674561,1088.220215 1359.063721,1088.661011 
	C1339.676025,1102.651855 1314.460815,1103.584961 1294.428955,1091.046875 
	C1272.850098,1077.540649 1263.773193,1057.225830 1262.727295,1032.615479 
	C1261.859131,1012.184021 1265.848633,993.162903 1279.458618,977.066162 
	C1299.000977,953.953003 1333.258057,948.239502 1359.205688,963.741333 
	C1360.003418,964.217896 1360.967285,964.416321 1362.336914,964.923340 
	C1362.708984,962.685059 1363.021240,960.806030 1363.400513,958.524536 
	C1375.571289,958.524536 1387.796021,958.524536 1400.863770,958.524536 
	C1400.863770,1001.001221 1400.863770,1043.244141 1400.859375,1085.983765 
M1361.281128,1030.500000 
	C1361.289062,1021.834839 1361.449463,1013.165161 1361.194336,1004.507751 
	C1361.132935,1002.423767 1360.242432,999.822693 1358.802246,998.405457 
	C1345.697388,985.509216 1315.012329,984.652405 1304.804688,1009.318420 
	C1301.306274,1017.771851 1301.115601,1026.554932 1302.089233,1035.375610 
	C1304.677124,1058.820801 1326.839233,1072.355347 1348.629028,1063.982910 
	C1357.567505,1060.548462 1361.122559,1055.473877 1361.202637,1045.997437 
	C1361.243530,1041.165039 1361.255249,1036.332520 1361.281128,1030.500000 
z"/>
<path fill="#1CB2D6" opacity="1.000000" stroke="none" 
	d="
M1037.042236,1085.911743 
	C1032.138672,1082.776489 1027.557007,1079.810913 1022.808716,1076.737549 
	C1029.612427,1065.752563 1036.081421,1055.308105 1042.774414,1044.501831 
	C1043.862549,1045.234009 1044.934814,1045.882690 1045.928467,1046.635010 
	C1064.200073,1060.467041 1084.534912,1068.163574 1107.697754,1066.910278 
	C1112.282104,1066.662354 1116.914917,1065.525024 1121.319336,1064.141479 
	C1128.468628,1061.895630 1132.764160,1056.889404 1133.462158,1049.242065 
	C1134.189697,1041.272705 1131.101929,1034.619995 1123.949707,1031.514771 
	C1114.243042,1027.300415 1103.984741,1024.327148 1093.892456,1021.038391 
	C1083.624390,1017.692444 1072.977417,1015.329346 1063.011475,1011.271240 
	C1036.908691,1000.642212 1027.583740,977.844666 1031.731079,952.016113 
	C1035.779663,926.802368 1054.230469,909.485291 1081.117310,905.307068 
	C1111.490112,900.587097 1140.126953,905.905212 1166.526855,922.039734 
	C1167.225220,922.466614 1167.860840,922.995972 1168.879272,923.733704 
	C1163.110352,935.196350 1157.394531,946.553650 1151.468140,958.329163 
	C1139.943359,950.011047 1127.896606,943.809509 1114.381592,941.831665 
	C1105.610718,940.548157 1096.494629,940.339233 1087.662476,941.117004 
	C1078.672974,941.908630 1072.778320,948.398315 1071.801025,956.038696 
	C1070.730591,964.406799 1074.283813,971.677734 1083.141968,975.098694 
	C1093.646973,979.155579 1104.639893,982.006409 1115.523560,985.010071 
	C1128.547119,988.604370 1141.645508,991.971008 1152.917603,999.845093 
	C1184.645630,1022.008118 1182.093384,1072.032471 1148.166260,1091.706299 
	C1127.104858,1103.919434 1104.288330,1105.342773 1080.853394,1101.597168 
	C1065.427856,1099.131836 1050.839355,1094.115356 1037.042236,1085.911743 
z"/>
<path fill="#1BB5D2" opacity="1.000000" stroke="none" 
	d="
M1471.295410,1080.984131 
	C1471.295044,1087.284302 1471.295044,1093.087524 1471.295044,1099.253906 
	C1458.022461,1099.253906 1445.452148,1099.253906 1432.570435,1099.253906 
	C1432.444092,1098.159424 1432.238892,1097.214722 1432.239624,1096.270264 
	C1432.286255,1032.286987 1432.398315,968.303650 1432.312988,904.320557 
	C1432.306641,899.571533 1433.537720,898.020447 1438.406494,898.182739 
	C1449.210205,898.542969 1460.034302,898.294922 1471.653320,898.294922 
	C1471.653320,921.732422 1471.653320,944.911926 1471.653320,969.515076 
	C1474.539917,967.622681 1476.345093,966.674744 1477.877075,965.398804 
	C1495.179932,950.987732 1533.330688,950.075195 1550.130005,969.162598 
	C1559.170288,979.434265 1563.333496,991.631287 1563.756714,1004.848389 
	C1564.486816,1027.652344 1564.335327,1050.485352 1564.501709,1073.306396 
	C1564.556396,1080.803833 1564.575073,1088.306885 1564.295166,1095.795776 
	C1564.247681,1097.066895 1562.621948,1099.337769 1561.688965,1099.356689 
	C1549.723877,1099.600098 1537.752075,1099.517578 1525.015503,1099.517578 
	C1525.015503,1097.159912 1525.015625,1095.242065 1525.015503,1093.324341 
	C1525.012451,1068.164062 1525.224365,1043.000488 1524.836792,1017.846130 
	C1524.752441,1012.374084 1523.507690,1006.439270 1521.069336,1001.585815 
	C1516.223877,991.942078 1504.721680,988.185852 1491.868774,990.776611 
	C1480.709595,993.025940 1473.167114,1000.747864 1471.805786,1011.525696 
	C1471.431396,1014.489685 1471.373169,1017.507812 1471.365234,1020.501587 
	C1471.312500,1040.496826 1471.312744,1060.492188 1471.295410,1080.984131 
z"/>
<path fill="#1B1D4F" opacity="1.000000" stroke="none" 
	d="
M524.277710,1078.288086 
	C495.556122,1110.137817 443.450317,1111.713257 413.994904,1081.781616 
	C398.886475,1066.428955 393.867493,1047.288696 394.293213,1026.422974 
	C394.983521,992.589111 414.192505,966.354736 445.141510,957.807251 
	C465.889191,952.077271 486.584900,952.908325 505.707336,963.699768 
	C531.358093,978.175415 541.611694,1001.597290 541.520508,1030.043701 
	C541.463440,1047.861328 536.162598,1064.148193 524.277710,1078.288086 
M473.742188,988.532593 
	C457.500610,986.306396 443.561981,993.451843 437.371094,1007.789795 
	C431.342041,1021.752991 431.317993,1036.055664 437.348480,1050.008423 
	C442.758667,1062.525879 452.795258,1068.715576 466.388885,1069.220459 
	C480.511505,1069.744995 491.643616,1064.495605 497.783600,1051.460571 
	C505.007019,1036.125488 504.831329,1020.481750 497.028290,1005.308411 
	C492.352356,996.215881 484.770233,990.589478 473.742188,988.532593 
z"/>
<path fill="#F88130" opacity="1.000000" stroke="none" 
	d="
M908.529663,1038.000000 
	C908.558655,1056.992554 908.416443,1075.487915 908.733093,1093.975586 
	C908.815186,1098.769897 907.203430,1099.900146 902.765503,1099.762451 
	C893.278015,1099.468262 883.773071,1099.512695 874.281006,1099.702148 
	C870.696472,1099.773804 869.317993,1098.866455 869.328369,1094.986572 
	C869.445801,1051.004639 869.371399,1007.022217 869.495972,963.040283 
	C869.500183,961.556580 871.028687,958.808594 871.898438,958.787537 
	C883.681458,958.502258 895.473633,958.595886 907.779358,958.595886 
	C907.779358,962.779846 907.779358,966.210388 907.779358,970.894775 
	C909.831604,969.518372 911.003967,968.850159 912.044189,968.016968 
	C930.416504,953.301453 951.199829,951.393982 972.432922,958.925415 
	C992.082703,965.895264 999.803284,982.872131 1000.735840,1002.253967 
	C1001.983643,1028.186768 1001.563904,1054.199829 1001.843750,1080.178711 
	C1001.899414,1085.342773 1001.824341,1090.508789 1001.922607,1095.671753 
	C1001.966553,1097.985352 1001.536194,1099.545044 998.732666,1099.532593 
	C986.931946,1099.480347 975.130859,1099.510498 962.809570,1099.510498 
	C962.707947,1097.258179 962.561523,1095.496582 962.559082,1093.734619 
	C962.524170,1068.411621 962.616089,1043.087646 962.390015,1017.766479 
	C962.349121,1013.184937 961.795288,1008.313721 960.150024,1004.094177 
	C954.540588,989.707947 933.629089,985.045593 919.623291,994.712097 
	C913.037659,999.257446 909.261780,1005.569946 908.858643,1013.518616 
	C908.453918,1021.497498 908.615784,1029.505005 908.529663,1038.000000 
z"/>
<path fill="#1B1D4F" opacity="1.000000" stroke="none" 
	d="
M740.045044,958.982483 
	C759.439880,968.003418 766.929993,984.458313 767.760986,1003.958740 
	C768.767700,1027.582031 768.236267,1051.271240 768.347839,1074.931885 
	C768.385376,1082.887085 768.353760,1090.842407 768.353760,1099.083008 
	C755.571594,1099.083008 743.145935,1099.083008 730.184082,1099.083008 
	C730.184082,1097.217163 730.186035,1095.444214 730.183777,1093.671387 
	C730.152527,1069.008057 730.130676,1044.344849 730.075439,1019.681519 
	C730.069092,1016.852295 730.130432,1013.986511 729.726685,1011.200562 
	C727.630310,996.732361 717.410767,988.614868 702.389282,989.321960 
	C687.025818,990.045288 676.229187,999.542419 675.988953,1013.832092 
	C675.552124,1039.820312 675.791626,1065.819946 675.749695,1091.814819 
	C675.746033,1094.119995 675.749207,1096.425049 675.749207,1099.008789 
	C662.754150,1099.008789 650.148254,1099.008789 637.292847,1099.008789 
	C637.292847,1052.189575 637.292847,1005.462830 637.292847,958.472839 
	C649.739563,958.472839 661.975403,958.472839 674.732300,958.472839 
	C674.732300,962.752625 674.732300,966.805664 674.732300,971.611572 
	C694.231995,953.398804 716.024170,951.097656 740.045044,958.982483 
z"/>
<path fill="#1BB5D2" opacity="1.000000" stroke="none" 
	d="
M1741.398926,1071.903198 
	C1746.271729,1071.422852 1750.822876,1071.380737 1755.089111,1070.256958 
	C1759.129272,1069.192749 1761.928589,1066.182495 1762.426270,1061.679321 
	C1762.945801,1056.978149 1760.928955,1053.112671 1756.835693,1051.432129 
	C1749.022949,1048.224609 1740.903564,1045.758789 1732.891846,1043.042847 
	C1726.911743,1041.015625 1720.728394,1039.485596 1714.934814,1037.028809 
	C1694.183716,1028.229492 1685.321777,1008.777039 1691.709473,987.070190 
	C1697.221924,968.337524 1710.752930,959.148987 1729.038574,956.212463 
	C1751.484985,952.607849 1772.775391,956.282104 1792.573486,967.833252 
	C1795.369263,969.464478 1796.396362,970.714233 1794.558105,973.991333 
	C1790.171997,981.810303 1786.248291,989.888672 1781.849365,998.422302 
	C1779.881714,997.428101 1778.143799,996.633850 1776.485474,995.698303 
	C1766.483887,990.055115 1755.808105,986.548340 1744.331177,985.767212 
	C1741.538696,985.577271 1738.624390,985.701111 1735.901611,986.298462 
	C1731.429443,987.279724 1727.859619,989.701111 1727.007080,994.623291 
	C1726.089966,999.918091 1728.472290,1003.792297 1733.057983,1006.100403 
	C1736.300049,1007.732300 1739.807251,1008.901855 1743.287476,1009.984192 
	C1753.127563,1013.044739 1763.210938,1015.430664 1772.839600,1019.039673 
	C1789.203613,1025.173218 1798.395996,1037.394653 1799.446533,1054.882812 
	C1800.528320,1072.888916 1792.669678,1086.539673 1776.910767,1095.185181 
	C1759.468262,1104.754517 1740.816162,1104.589966 1721.979370,1100.557007 
	C1709.480713,1097.880981 1697.839233,1093.007202 1687.653564,1085.145020 
	C1686.546143,1084.290161 1685.513794,1081.546509 1686.055542,1080.626099 
	C1690.939697,1072.329712 1696.183350,1064.244995 1701.499390,1055.816040 
	C1713.204956,1065.214844 1726.522949,1069.944458 1741.398926,1071.903198 
z"/>
<path fill="#1B1D4F" opacity="1.000000" stroke="none" 
	d="
M367.476135,1058.637939 
	C372.647400,1061.354370 377.506348,1063.877319 382.628296,1066.536987 
	C378.572449,1076.433472 372.057648,1084.194214 363.642883,1090.420166 
	C329.382446,1115.768555 265.350616,1105.145508 251.668182,1050.872070 
	C246.780853,1031.485962 247.867035,1012.166443 256.605865,993.788330 
	C266.367493,973.259399 282.846161,961.038940 304.779358,956.219360 
	C316.443481,953.656311 328.320374,953.901855 340.026062,956.350830 
	C359.807739,960.489502 374.005707,971.747192 382.399841,990.847351 
	C372.325500,996.412964 362.065155,1002.081421 352.694336,1007.258362 
	C347.903168,1002.323975 344.050018,996.852722 338.876221,993.310425 
	C323.628265,982.870667 302.027802,988.659485 293.496796,1005.370117 
	C285.360443,1021.307800 285.656219,1037.699585 294.368164,1053.256714 
	C306.590820,1075.083130 337.689789,1074.953369 350.304077,1053.390747 
	C350.965973,1052.259399 351.627228,1051.127441 352.409271,1049.789673 
	C357.459625,1052.752075 362.311737,1055.598267 367.476135,1058.637939 
z"/>
<path fill="#1BB5D2" opacity="1.000000" stroke="none" 
	d="
M1645.005371,1064.978271 
	C1651.343750,1070.577637 1657.745483,1068.057495 1664.732666,1065.698975 
	C1668.232666,1074.562378 1671.739990,1083.305420 1675.063110,1092.117920 
	C1675.334106,1092.836548 1674.631226,1094.432617 1673.904541,1094.942505 
	C1656.830688,1106.926636 1621.849731,1108.115967 1608.584595,1084.810547 
	C1603.805176,1076.413696 1602.217163,1067.331177 1602.171021,1057.919067 
	C1602.073730,1038.088623 1602.204468,1018.257019 1602.240601,998.425842 
	C1602.244507,996.299988 1602.241333,994.174133 1602.241333,991.306885 
	C1594.998657,991.306885 1588.417847,991.306885 1581.446533,991.306885 
	C1581.446533,979.999817 1581.446533,969.431763 1581.446533,958.203735 
	C1584.963867,958.203735 1588.403442,958.244019 1591.841553,958.196472 
	C1603.790039,958.031433 1601.888428,959.575500 1602.056152,948.261841 
	C1602.179321,939.954041 1602.080322,931.642944 1602.080322,922.945435 
	C1615.252197,922.945435 1627.837280,922.945435 1641.366455,922.945435 
	C1641.366455,927.293823 1641.369263,931.716980 1641.365845,936.140076 
	C1641.361328,941.972778 1641.516602,947.812134 1641.283325,953.635803 
	C1641.140991,957.187622 1642.513306,958.291321 1645.928467,958.186401 
	C1652.421997,957.986877 1658.925415,958.097229 1665.424805,958.117249 
	C1666.878662,958.121765 1668.332031,958.284607 1670.090332,958.393372 
	C1670.090332,969.316956 1670.090332,979.907288 1670.090332,991.104553 
	C1661.969849,991.104553 1654.017456,991.250549 1646.074707,991.040039 
	C1642.363403,990.941711 1641.057251,992.323669 1641.088501,995.956116 
	C1641.252930,1015.117798 1641.101929,1034.284424 1641.503052,1053.440063 
	C1641.582031,1057.213135 1643.604614,1060.945557 1645.005371,1064.978271 
z"/>
<path fill="#F87D2E" opacity="1.000000" stroke="none" 
	d="
M837.484070,962.516113 
	C837.486816,1008.225830 837.486816,1053.489014 837.486816,1099.250000 
	C824.887390,1099.250000 812.364502,1099.250000 799.425537,1099.250000 
	C799.425537,1052.663818 799.425537,1006.007507 799.425537,958.577576 
	C805.859131,958.577576 812.140686,958.569580 818.422241,958.580017 
	C823.582275,958.588562 828.742615,958.664429 833.902100,958.619629 
	C836.323914,958.598633 837.770020,959.380005 837.484070,962.516113 
z"/>
<path fill="#1B1D4F" opacity="1.000000" stroke="none" 
	d="
M597.878052,1099.289062 
	C587.293030,1099.287109 577.171509,1099.287109 566.769165,1099.287109 
	C566.769165,1052.306641 566.769165,1005.752808 566.769165,958.957886 
	C579.333252,958.957886 591.769897,958.957886 604.593018,958.957886 
	C604.593018,1005.639587 604.593018,1052.197510 604.593018,1099.291016 
	C602.585999,1099.291016 600.463745,1099.291016 597.878052,1099.289062 
z"/>
<path fill="#1BB3D3" opacity="1.000000" stroke="none" 
	d="
M1199.074219,987.000000 
	C1199.073486,977.540955 1199.073486,968.581909 1199.073486,959.239014 
	C1212.029785,959.239014 1224.417969,959.239014 1237.188110,959.239014 
	C1237.188110,1005.820496 1237.188110,1052.330811 1237.188110,1099.147461 
	C1224.346436,1099.147461 1211.961304,1099.147461 1199.075073,1099.147461 
	C1199.075073,1061.688232 1199.075073,1024.594116 1199.074219,987.000000 
z"/>
<path fill="#1CB2D6" opacity="1.000000" stroke="none" 
	d="
M1195.583374,911.851562 
	C1198.588379,901.480591 1205.250366,895.533203 1215.429932,894.217957 
	C1225.590942,892.905029 1233.908936,896.779846 1238.978394,905.759766 
	C1243.842651,914.376282 1243.624268,923.325500 1237.883667,931.637573 
	C1232.328125,939.681763 1220.645020,943.306641 1211.172119,940.252441 
	C1201.021240,936.979675 1195.119263,928.963989 1195.033569,918.201721 
	C1195.017822,916.220886 1195.315186,914.237610 1195.583374,911.851562 
z"/>
<path fill="#F88130" opacity="1.000000" stroke="none" 
	d="
M802.563843,900.549561 
	C813.280579,892.434875 824.807983,892.339294 833.860046,900.043030 
	C841.785767,906.788208 844.332642,919.478271 839.628296,928.784668 
	C833.904236,940.108337 818.770325,944.632812 807.346619,938.435791 
	C795.911499,932.232544 791.921936,917.122070 798.739197,905.576782 
	C799.744202,903.874634 801.110962,902.385986 802.563843,900.549561 
z"/>
<path fill="#1B1D4F" opacity="1.000000" stroke="none" 
	d="
M599.103699,937.183533 
	C588.107239,943.286011 576.034790,941.894043 568.586121,933.902222 
	C561.514099,926.314392 560.247620,913.872681 565.839966,905.238403 
	C571.254333,896.879028 579.095276,893.384216 588.895142,894.713074 
	C598.791748,896.055054 605.315735,901.889526 608.023682,911.307373 
	C610.981567,921.594116 607.803406,930.275696 599.103699,937.183533 
z"/>
<path fill="#FFFFFF" opacity="1.000000" stroke="none" 
	d="
M1361.280518,1031.000000 
	C1361.255249,1036.332520 1361.243530,1041.165039 1361.202637,1045.997437 
	C1361.122559,1055.473877 1357.567505,1060.548462 1348.629028,1063.982910 
	C1326.839233,1072.355347 1304.677124,1058.820801 1302.089233,1035.375610 
	C1301.115601,1026.554932 1301.306274,1017.771851 1304.804688,1009.318420 
	C1315.012329,984.652405 1345.697388,985.509216 1358.802246,998.405457 
	C1360.242432,999.822693 1361.132935,1002.423767 1361.194336,1004.507751 
	C1361.449463,1013.165161 1361.289062,1021.834839 1361.280518,1031.000000 
z"/>
<path fill="#FFFFFF" opacity="1.000000" stroke="none" 
	d="
M474.158325,988.636963 
	C484.770233,990.589478 492.352356,996.215881 497.028290,1005.308411 
	C504.831329,1020.481750 505.007019,1036.125488 497.783600,1051.460571 
	C491.643616,1064.495605 480.511505,1069.744995 466.388885,1069.220459 
	C452.795258,1068.715576 442.758667,1062.525879 437.348480,1050.008423 
	C431.317993,1036.055664 431.342041,1021.752991 437.371094,1007.789795 
	C443.561981,993.451843 457.500610,986.306396 474.158325,988.636963 
z"/>
</svg>